<svg xmlns="http://www.w3.org/2000/svg" xmlns:xlink="http://www.w3.org/1999/xlink" viewBox="0 0 64 64"><defs><style>.cls-1{fill:#0668cb;}.cls-2{fill:#b4cde1;}.cls-3{fill:url(#linear-gradient);}.cls-4{fill:url(#linear-gradient-2);}.cls-5{fill:#4795ea;}.cls-6{fill:#f0f7fc;}.cls-7{fill:url(#linear-gradient-3);}.cls-8{fill:#9db8d3;}</style><linearGradient id="linear-gradient" x1="32" y1="57" x2="32" y2="29" gradientUnits="userSpaceOnUse"><stop offset="0" stop-color="#d3e6f5"/><stop offset="1" stop-color="#f0f7fc"/></linearGradient><linearGradient id="linear-gradient-2" x1="32" y1="42" x2="32" y2="36" gradientUnits="userSpaceOnUse"><stop offset="0" stop-color="#fe9661"/><stop offset="1" stop-color="#ffb369"/></linearGradient><linearGradient id="linear-gradient-3" x1="41" y1="10" x2="33" y2="10" xlink:href="#linear-gradient-2"/></defs><title>School</title><g id="School"><path class="cls-1" d="M31,18V7a1,1,0,0,1,2,0V18A1,1,0,0,1,31,18Z"/><rect class="cls-2" x="9" y="38" width="11" height="19"/><rect class="cls-2" x="44" y="37" width="11" height="20"/><rect class="cls-3" x="20" y="29" width="24" height="28"/><path class="cls-2" d="M28,47h4a0,0,0,0,1,0,0V57a0,0,0,0,1,0,0H26a0,0,0,0,1,0,0V49A2,2,0,0,1,28,47Z"/><path class="cls-2" d="M32,47h4a2,2,0,0,1,2,2v8a0,0,0,0,1,0,0H32a0,0,0,0,1,0,0V47A0,0,0,0,1,32,47Z"/><circle class="cls-4" cx="32" cy="39" r="3"/><path class="cls-5" d="M44,33H56a1,1,0,0,1,1,1v2a1,1,0,0,1-1,1H44a0,0,0,0,1,0,0V33A0,0,0,0,1,44,33Z"/><path class="cls-5" d="M8,34H20a0,0,0,0,1,0,0v4a0,0,0,0,1,0,0H8a1,1,0,0,1-1-1V35A1,1,0,0,1,8,34Z"/><path class="cls-6" d="M51,43H48a1,1,0,0,1,0-2h3A1,1,0,0,1,51,43Z"/><path class="cls-6" d="M51,48H48a1,1,0,0,1,0-2h3A1,1,0,0,1,51,48Z"/><path class="cls-6" d="M51,53H48a1,1,0,0,1,0-2h3A1,1,0,0,1,51,53Z"/><path class="cls-6" d="M16,43H13a1,1,0,0,1,0-2h3A1,1,0,0,1,16,43Z"/><path class="cls-6" d="M16,48H13a1,1,0,0,1,0-2h3A1,1,0,0,1,16,48Z"/><path class="cls-6" d="M16,53H13a1,1,0,0,1,0-2h3A1,1,0,0,1,16,53Z"/><path class="cls-5" d="M32.54,17.35c14,9,13.46,8.42,13.46,9.2V28a1,1,0,0,1-1,1H19a1,1,0,0,1-1-1c0-1.48-.12-1.93.46-2.3C32.34,16.78,31.77,16.85,32.54,17.35Z"/><path class="cls-7" d="M33,7h7a1,1,0,0,1,1,1v4a1,1,0,0,1-1,1H33a0,0,0,0,1,0,0V7A0,0,0,0,1,33,7Z"/><rect class="cls-8" x="31" y="47" width="2" height="10"/><path class="cls-5" d="M57,58H7a1,1,0,0,1,0-2H57A1,1,0,0,1,57,58Z"/></g></svg>